<svg width="43" height="42" viewBox="0 0 43 42" fill="none" xmlns="http://www.w3.org/2000/svg">
<ellipse cx="21.2836" cy="20.8571" rx="20.855" ry="20.8571" fill="white"/>
<path d="M24.0504 15.6833H26.5126C26.7391 15.6833 26.923 15.5113 26.923 15.2993V12.9953C26.923 12.7834 26.7391 12.6113 26.5126 12.6113H24.0504C21.562 12.6113 19.5364 14.506 19.5364 16.8353V19.5233H16.6639C16.4374 19.5233 16.2535 19.6953 16.2535 19.9073V22.2113C16.2535 22.4232 16.4374 22.5953 16.6639 22.5953H19.5364V30.6592C19.5364 30.8712 19.7203 31.0432 19.9468 31.0432H22.409C22.6355 31.0432 22.8194 30.8712 22.8194 30.6592V22.5953H25.6919C25.8684 22.5953 26.0251 22.4893 26.0817 22.3326L26.9025 20.0286C26.9443 19.9119 26.923 19.7829 26.8458 19.6823C26.7679 19.5824 26.6448 19.5233 26.5126 19.5233H22.8194V16.8353C22.8194 16.2002 23.3717 15.6833 24.0504 15.6833Z" fill="#0C111A"/>
</svg>
