<svg width="15" height="15" viewBox="0 0 15 15" fill="none" xmlns="http://www.w3.org/2000/svg">
<path d="M12.944 13.4895L10.2107 10.7561M10.2107 10.7561C10.6782 10.2886 11.0491 9.73353 11.3021 9.12265C11.5552 8.51176 11.6854 7.85702 11.6854 7.1958C11.6854 6.53458 11.5552 5.87984 11.3022 5.26895C11.0491 4.65807 10.6782 4.103 10.2107 3.63545C9.74313 3.1679 9.18806 2.79702 8.57718 2.54398C7.96629 2.29094 7.31155 2.16071 6.65033 2.16071C5.98911 2.16071 5.33437 2.29094 4.72348 2.54398C4.1126 2.79702 3.55753 3.1679 3.08998 3.63545C2.14572 4.57971 1.61523 5.86041 1.61523 7.1958C1.61523 8.53119 2.14572 9.81189 3.08998 10.7561C4.03424 11.7004 5.31494 12.2309 6.65033 12.2309C7.98572 12.2309 9.26641 11.7004 10.2107 10.7561Z" stroke="black" stroke-width="2.5" stroke-linecap="round" stroke-linejoin="round"/>
</svg>
