<svg width="23" height="23" viewBox="0 0 23 23" fill="none" xmlns="http://www.w3.org/2000/svg">
<path d="M11.5 0C8.45001 0 5.52494 1.2116 3.36827 3.36827C1.2116 5.52494 0 8.45001 0 11.5C0 14.55 1.2116 17.4751 3.36827 19.6317C5.52494 21.7884 8.45001 23 11.5 23C14.55 23 17.4751 21.7884 19.6317 19.6317C21.7884 17.4751 23 14.55 23 11.5C23 8.45001 21.7884 5.52494 19.6317 3.36827C17.4751 1.2116 14.55 0 11.5 0ZM16.7742 16.5859C16.6746 16.7478 16.5149 16.8636 16.3301 16.9081C16.1453 16.9525 15.9504 16.922 15.7881 16.8231C13.087 15.1743 9.68875 14.8005 5.68531 15.7162C5.49983 15.7585 5.30514 15.7254 5.14407 15.6242C4.98299 15.523 4.86872 15.3619 4.82641 15.1764C4.78409 14.9909 4.81718 14.7962 4.91841 14.6352C5.01964 14.4741 5.18071 14.3598 5.36619 14.3175C9.74769 13.317 13.5053 13.7468 16.5356 15.5998C16.6977 15.6991 16.8138 15.8587 16.8586 16.0435C16.9033 16.2284 16.873 16.4234 16.7742 16.5859ZM18.1815 13.455C18.057 13.6576 17.8571 13.8024 17.6258 13.8577C17.3945 13.9129 17.1508 13.8741 16.9481 13.7497C13.8575 11.8507 9.14537 11.3002 5.48838 12.4099C5.26579 12.4628 5.0314 12.4288 4.83303 12.3148C4.63466 12.2008 4.48725 12.0155 4.42087 11.7965C4.35449 11.5776 4.37414 11.3415 4.47581 11.1366C4.57748 10.9316 4.75351 10.7732 4.968 10.6936C9.14394 9.42713 14.3362 10.0409 17.8854 12.2216C18.0882 12.3459 18.2333 12.5457 18.2888 12.777C18.3444 13.0083 18.3058 13.2522 18.1815 13.455ZM18.3023 10.1948C14.5964 7.9925 8.48125 7.78981 4.94212 8.86362C4.66915 8.94636 4.37449 8.91726 4.12297 8.78274C3.87145 8.64822 3.68367 8.41929 3.60094 8.14631C3.51821 7.87334 3.5473 7.57868 3.68182 7.32716C3.81635 7.07564 4.04528 6.88786 4.31825 6.80513C8.37919 5.57319 15.1326 5.81037 19.4005 8.34325C19.646 8.48889 19.8236 8.72609 19.8943 9.00269C19.9649 9.27928 19.9228 9.5726 19.7771 9.81812C19.6315 10.0636 19.3943 10.2413 19.1177 10.3119C18.8411 10.3825 18.5478 10.3404 18.3023 10.1948Z" fill="black"/>
</svg>
