<svg width="122" height="66" viewBox="0 0 122 66" fill="none" xmlns="http://www.w3.org/2000/svg">
<ellipse cx="96" cy="18.5" rx="6" ry="6.5" fill="#BF3542"/>
<ellipse cx="83.5" cy="6" rx="6.5" ry="6" fill="#BF3542"/>
<ellipse cx="71" cy="18.5" rx="6" ry="6.5" fill="#BF3542"/>
<ellipse cx="83.5" cy="31" rx="6.5" ry="6" fill="#BF3542"/>
<rect x="31" width="13" height="37" rx="5.5" fill="#BF3542"/>
<rect x="19" y="25" width="13" height="37" rx="5.5" transform="rotate(-90 19 25)" fill="#BF3542"/>
<path d="M9.64 47.46L9.34 49.26H5.98V61H3.62V49.26H0.2V47.46H9.64ZM11.2633 47.46H19.3033V49.26H13.6433V53.04H18.3033L18.0033 54.86H13.6433V59.2H19.6033V61H11.2633V47.46ZM25.2172 47.46H27.0972L32.3172 61H29.7772L28.5372 57.46H23.6572L22.3772 61H20.0172L25.2172 47.46ZM27.9172 55.7C27.4905 54.5 27.1239 53.4133 26.8172 52.44C26.5105 51.4533 26.2772 50.68 26.1172 50.12C25.9305 50.72 25.6839 51.5067 25.3772 52.48C25.0705 53.4533 24.7105 54.5267 24.2972 55.7H27.9172ZM41.2266 61H39.5466L37.2866 55.86C37.2199 55.7133 37.1332 55.5133 37.0266 55.26C36.9332 55.0067 36.8266 54.7267 36.7066 54.42C36.5866 54.1133 36.4599 53.7933 36.3266 53.46C36.1932 53.1133 36.0666 52.7667 35.9466 52.42C35.9466 52.7667 35.9399 53.1133 35.9266 53.46C35.9266 53.7933 35.9199 54.1133 35.9066 54.42C35.8932 54.7133 35.8799 54.98 35.8666 55.22C35.8666 55.4467 35.8666 55.6267 35.8666 55.76L35.6666 61H33.4266L34.2266 47.42H36.0866L39.5066 55.9C39.6266 56.2067 39.7599 56.54 39.9066 56.9C40.0666 57.26 40.2132 57.6133 40.3466 57.96C40.4799 57.6133 40.6199 57.2667 40.7666 56.92C40.9132 56.56 41.0532 56.22 41.1866 55.9L44.6266 47.42H46.4466L47.2466 61H45.0266L44.8066 55.82C44.7932 55.4867 44.7732 55.0133 44.7466 54.4C44.7332 53.7733 44.7199 53.14 44.7066 52.5C44.5866 52.8333 44.4599 53.1667 44.3266 53.5C44.2066 53.8333 44.0932 54.1467 43.9866 54.44C43.8799 54.7333 43.7799 55 43.6866 55.24C43.5932 55.48 43.5199 55.6667 43.4666 55.8L41.2266 61ZM62.3752 50.18C62.0552 49.8333 61.7152 49.5733 61.3552 49.4C61.0085 49.2133 60.6018 49.12 60.1352 49.12C59.5618 49.12 59.0752 49.2533 58.6752 49.52C58.2885 49.7733 57.9752 50.1333 57.7352 50.6C57.4952 51.0533 57.3218 51.5867 57.2152 52.2C57.1085 52.8133 57.0552 53.4733 57.0552 54.18C57.0552 54.8867 57.1018 55.5467 57.1952 56.16C57.3018 56.7733 57.4752 57.3133 57.7152 57.78C57.9685 58.2467 58.3018 58.6133 58.7152 58.88C59.1418 59.1467 59.6752 59.28 60.3152 59.28C60.6218 59.28 60.9152 59.2533 61.1952 59.2C61.4752 59.1467 61.7285 59.0933 61.9552 59.04C62.1952 58.9733 62.3885 58.9133 62.5352 58.86C62.6952 58.8067 62.7952 58.7733 62.8352 58.76L63.3952 60.44L63.1352 60.54C62.9618 60.6067 62.7152 60.6867 62.3952 60.78C62.0885 60.86 61.7152 60.9333 61.2752 61C60.8485 61.08 60.3752 61.12 59.8552 61.12C58.0685 61.12 56.7218 60.5533 55.8152 59.42C54.9218 58.2733 54.4752 56.6 54.4752 54.4C54.4752 53.3467 54.5952 52.3867 54.8352 51.52C55.0752 50.64 55.4352 49.8867 55.9152 49.26C56.4085 48.6333 57.0218 48.1467 57.7552 47.8C58.5018 47.4533 59.3752 47.28 60.3752 47.28C61.1752 47.28 61.8285 47.4267 62.3352 47.72C62.8552 48.0133 63.2752 48.3467 63.5952 48.72L62.3752 50.18ZM73.3639 54.84H67.7839V61H65.4039V47.46H67.7839V53.1H73.3639V47.46H75.7439V61H73.3639V54.84ZM82.2484 47.46H84.1284L89.3484 61H86.8084L85.5684 57.46H80.6884L79.4084 61H77.0484L82.2484 47.46ZM84.9484 55.7C84.5218 54.5 84.1551 53.4133 83.8484 52.44C83.5418 51.4533 83.3084 50.68 83.1484 50.12C82.9618 50.72 82.7151 51.5067 82.4084 52.48C82.1018 53.4533 81.7418 54.5267 81.3284 55.7H84.9484ZM90.6578 47.46C90.7511 47.46 90.9645 47.46 91.2978 47.46C91.6311 47.4467 92.0045 47.44 92.4178 47.44C92.8311 47.44 93.2445 47.44 93.6578 47.44C94.0711 47.4267 94.4111 47.42 94.6778 47.42C96.3311 47.42 97.5378 47.7467 98.2978 48.4C99.0578 49.04 99.4378 49.9467 99.4378 51.12C99.4378 51.8933 99.2445 52.58 98.8578 53.18C98.4711 53.78 97.8378 54.2133 96.9578 54.48C97.3311 54.6933 97.6645 54.9867 97.9578 55.36C98.2511 55.7333 98.5378 56.1933 98.8178 56.74C99.0978 57.2733 99.3845 57.9 99.6778 58.62C99.9711 59.3267 100.311 60.12 100.698 61H98.1178C97.6645 59.9467 97.2645 59.0467 96.9178 58.3C96.5845 57.5533 96.2578 56.9467 95.9378 56.48C95.6178 56.0133 95.2711 55.6733 94.8978 55.46C94.5378 55.2467 94.1111 55.14 93.6178 55.14H93.0378V61H90.6578V47.46ZM93.0378 53.4H94.5778C95.3245 53.4 95.8978 53.2333 96.2978 52.9C96.7111 52.5667 96.9178 52.0733 96.9178 51.42C96.9178 51.1267 96.8778 50.84 96.7978 50.56C96.7178 50.28 96.5778 50.0333 96.3778 49.82C96.1911 49.6067 95.9311 49.44 95.5978 49.32C95.2778 49.1867 94.8711 49.12 94.3778 49.12H93.0378V53.4ZM102.142 47.46C102.236 47.46 102.449 47.46 102.782 47.46C103.116 47.4467 103.489 47.44 103.902 47.44C104.316 47.44 104.729 47.44 105.142 47.44C105.556 47.4267 105.896 47.42 106.162 47.42C107.816 47.42 109.022 47.7467 109.782 48.4C110.542 49.04 110.922 49.9467 110.922 51.12C110.922 51.8933 110.729 52.58 110.342 53.18C109.956 53.78 109.322 54.2133 108.442 54.48C108.816 54.6933 109.149 54.9867 109.442 55.36C109.736 55.7333 110.022 56.1933 110.302 56.74C110.582 57.2733 110.869 57.9 111.162 58.62C111.456 59.3267 111.796 60.12 112.182 61H109.602C109.149 59.9467 108.749 59.0467 108.402 58.3C108.069 57.5533 107.742 56.9467 107.422 56.48C107.102 56.0133 106.756 55.6733 106.382 55.46C106.022 55.2467 105.596 55.14 105.102 55.14H104.522V61H102.142V47.46ZM104.522 53.4H106.062C106.809 53.4 107.382 53.2333 107.782 52.9C108.196 52.5667 108.402 52.0733 108.402 51.42C108.402 51.1267 108.362 50.84 108.282 50.56C108.202 50.28 108.062 50.0333 107.862 49.82C107.676 49.6067 107.416 49.44 107.082 49.32C106.762 49.1867 106.356 49.12 105.862 49.12H104.522V53.4ZM115.235 55.82L111.035 47.46H113.615L116.455 53.6L119.355 47.46H121.875L117.615 55.92V61H115.235V55.82Z" fill="#CD3E47"/>
</svg>
