<svg width="161" height="53" viewBox="0 0 161 53" fill="none" xmlns="http://www.w3.org/2000/svg">
<g clip-path="url(#clip0_372_34)">
<path d="M61.1894 14.223V28.4586C61.1894 29.7813 61.4888 30.8023 62.0878 31.5216C62.7098 32.2409 63.6429 32.6006 64.8869 32.6006C66.1309 32.6006 67.0639 32.2409 67.6859 31.5216C68.3309 30.779 68.6535 29.7581 68.6535 28.4586V14.223H75.4265V28.4586C75.4265 30.7094 74.9542 32.6354 74.0097 34.2364C73.0651 35.8143 71.7751 37.0093 70.1394 37.8215C68.5268 38.6104 66.7299 39.0049 64.7486 39.0049C62.7674 39.0049 60.9936 38.6104 59.427 37.8215C57.8835 37.0093 56.6625 35.8143 55.7641 34.2364C54.8886 32.6585 54.4509 30.7327 54.4509 28.4586V14.223H61.1894ZM91.8375 19.061C94.0726 19.061 95.846 19.8151 97.1591 21.3234C98.4723 22.8085 99.1288 24.8272 99.1288 27.3797V38.7612H92.3558V28.2846C92.3558 27.1708 92.0684 26.3007 91.4919 25.6742C90.9163 25.0245 90.1442 24.6996 89.1767 24.6996C88.1635 24.6996 87.3688 25.0245 86.7923 25.6742C86.2166 26.3007 85.9284 27.1708 85.9284 28.2846V38.7612H79.1554V19.2351H85.9284V22.0195C86.5276 21.1378 87.3342 20.4301 88.3473 19.8964C89.3612 19.3395 90.5244 19.061 91.8375 19.061ZM106.266 17.4252C105.069 17.4252 104.101 17.1003 103.364 16.4506C102.65 15.7776 102.292 14.9423 102.292 13.9446C102.292 12.9236 102.65 12.0767 103.364 11.4037C104.101 10.7308 105.069 10.3943 106.266 10.3943C107.441 10.3943 108.386 10.7308 109.1 11.4037C109.837 12.0767 110.206 12.9236 110.206 13.9446C110.206 14.9423 109.837 15.7776 109.1 16.4506C108.386 17.1003 107.441 17.4252 106.266 17.4252ZM109.618 19.2351V38.7612H102.845V19.2351H109.618ZM124.913 32.9486V38.7612H121.976C117.023 38.7612 114.546 36.29 114.546 31.3475V24.9084H112.162V19.2351H114.546V14.5015H121.354V19.2351H124.879V24.9084H121.354V31.452C121.354 31.9857 121.469 32.3685 121.699 32.6006C121.953 32.8326 122.368 32.9486 122.943 32.9486H124.913ZM148.892 19.2351L136.59 48.0544H129.23L133.86 37.9259L125.912 19.2351H133.445L137.523 30.3034L141.462 19.2351H148.892Z" fill="white"/>
<path d="M21.5976 9.49254V0L0 12.6567V37.1791L8.24634 32.4328V22.1493L19.2415 28.0821V41.1343L10.2098 36.3881L2.74878 41.1343L23.561 53V21.3582L12.9585 14.6343L21.5976 9.49254Z" fill="white"/>
<path d="M21.5976 9.49254V0L0 12.6567V37.1791L8.24634 32.4328V22.1493L19.2415 28.0821V41.1343L10.2098 36.3881L2.74878 41.1343L23.561 53V21.3582L12.9585 14.6343L21.5976 9.49254Z" fill="white"/>
<path d="M25.5244 9.49254V0L47.122 12.6567V37.1791L38.8757 32.4328V22.1493L27.8805 28.0821V41.1343L36.9123 36.3881L44.3732 41.1343L23.561 53V21.3582L34.1635 14.6343L25.5244 9.49254Z" fill="white"/>
<path d="M25.5244 9.49254V0L47.122 12.6567V37.1791L38.8757 32.4328V22.1493L27.8805 28.0821V41.1343L36.9123 36.3881L44.3732 41.1343L23.561 53V21.3582L34.1635 14.6343L25.5244 9.49254Z" fill="white"/>
<path d="M156.366 17.7194L155.411 15.9689H155.268V17.7194H153.932V12.9731H156.038C156.424 12.9731 156.752 13.0404 157.02 13.175C157.288 13.3052 157.49 13.4869 157.627 13.7204C157.763 13.9492 157.831 14.2073 157.831 14.4946C157.831 14.8177 157.741 15.1027 157.559 15.3496C157.381 15.5919 157.12 15.7648 156.775 15.868L157.859 17.7194H156.366ZM155.268 15.0668H155.929C156.111 15.0668 156.247 15.0242 156.338 14.9389C156.429 14.8536 156.475 14.7302 156.475 14.5686C156.475 14.416 156.427 14.2971 156.332 14.2119C156.241 14.1221 156.106 14.0771 155.929 14.0771H155.268V15.0668Z" fill="white"/>
<path d="M155.895 19.7761C158.281 19.7761 160.215 17.8283 160.215 15.4254C160.215 13.0225 158.281 11.0746 155.895 11.0746C153.509 11.0746 151.576 13.0225 151.576 15.4254C151.576 17.8283 153.509 19.7761 155.895 19.7761Z" stroke="white"/>
</g>
<defs>
<clipPath id="clip0_372_34">
<rect width="161" height="53" fill="white"/>
</clipPath>
</defs>
</svg>
