<svg width="43" height="42" viewBox="0 0 43 42" fill="none" xmlns="http://www.w3.org/2000/svg">
<circle cx="21.5714" cy="20.8571" r="20.8571" fill="white"/>
<path d="M31.3139 16.3633C31.2054 15.9679 30.9933 15.6074 30.6987 15.3175C30.4042 15.0276 30.0375 14.8185 29.6351 14.711C28.143 14.3087 22.1737 14.3021 22.1737 14.3021C22.1737 14.3021 16.2054 14.2956 14.7124 14.6801C14.3102 14.7925 13.9443 15.0046 13.6496 15.2959C13.355 15.5872 13.1415 15.948 13.0298 16.3437C12.6363 17.8089 12.6324 20.8479 12.6324 20.8479C12.6324 20.8479 12.6286 23.9018 13.0193 25.352C13.2384 26.1539 13.8816 26.7873 14.6991 27.0034C16.2064 27.4058 22.1594 27.4123 22.1594 27.4123C22.1594 27.4123 28.1287 27.4189 29.6208 27.0353C30.0233 26.928 30.3904 26.7194 30.6857 26.4301C30.981 26.1408 31.1942 25.7808 31.3044 25.3857C31.6988 23.9214 31.7017 20.8834 31.7017 20.8834C31.7017 20.8834 31.7207 17.8286 31.3139 16.3633ZM20.2643 23.6632L20.2691 18.0494L25.2303 20.861L20.2643 23.6632Z" fill="black"/>
</svg>
